<svg width="80" height="80" xmlns="http://www.w3.org/2000/svg">
 <title/>

 <g>
  <title>background</title>
  <rect fill="none" id="canvas_background" height="402" width="582" y="-1" x="-1"/>
 </g>
 <g>
  <title>Layer 1</title>
  <path fill="#0fffff" id="svg_1" d="m74.3,72.2l-15.6,-15.7c11.2,-12.5 10.3,-31.7 -2.2,-43s-31.7,-10.3 -43,2.2s-10.3,31.7 2.2,43c11.6,10.5 29.3,10.5 40.9,0l15.7,15.7l2,-2.2zm-38.2,-8.7c-15.1,0 -27.4,-12.3 -27.4,-27.4c0,-15.2 12.3,-27.4 27.4,-27.4c15.1,0 27.4,12.3 27.4,27.4c0,15.1 -12.3,27.4 -27.4,27.4z"/>
  <path fill="#0fffff" id="svg_2" d="m36.1,12.8l0,3c11.2,0 20.3,9.1 20.3,20.3l3,0c0,-12.9 -10.4,-23.3 -23.3,-23.3z"/>
 </g>
</svg>